<?xml version="1.0" encoding="UTF-8" standalone="no"?>
<!-- Generator: Adobe Illustrator 16.0.0, SVG Export Plug-In . SVG Version: 6.00 Build 0)  -->

<svg
   version="1.1"
   id="svg2"
   x="0px"
   y="0px"
   width="41.226px"
   height="29.248px"
   viewBox="0 0 41.226 29.248"
   enable-background="new 0 0 41.226 29.248"
   xml:space="preserve"
   sodipodi:docname="DUO_LED_TWO_PINS_RG_schematic.svg"
   inkscape:version="1.1.2 (0a00cf5, 2022-02-04)"
   xmlns:inkscape="http://www.inkscape.org/namespaces/inkscape"
   xmlns:sodipodi="http://sodipodi.sourceforge.net/DTD/sodipodi-0.dtd"
   xmlns="http://www.w3.org/2000/svg"
   xmlns:svg="http://www.w3.org/2000/svg"><defs
   id="defs229">
	
	
	
	
	
	
	
	
		
	
	
	
	
	
	
</defs>
<sodipodi:namedview
   id="namedview89"
   borderopacity="1"
   bordercolor="#666666"
   gridtolerance="10"
   guidetolerance="10"
   objecttolerance="10"
   showgrid="false"
   pagecolor="#ffffff"
   inkscape:pageshadow="0"
   inkscape:pageopacity="0"
   inkscape:pagecheckerboard="0"
   inkscape:zoom="13.915482"
   inkscape:cx="20.62451"
   inkscape:cy="14.588068"
   inkscape:window-width="1920"
   inkscape:window-height="1020"
   inkscape:window-x="0"
   inkscape:window-y="0"
   inkscape:window-maximized="1"
   inkscape:current-layer="svg2">
	</sodipodi:namedview>
<rect
   id="connector0terminal"
   x="4.434"
   y="28.877001"
   width="0.071000002"
   height="0.071000002" /><rect
   id="connector1terminal"
   x="18.768999"
   y="0.28799999"
   width="0.071000002"
   height="0.071000002" /><rect
   id="connector1pin"
   x="18.563"
   y="0.152"
   width="0.46799999"
   height="5.539"
   style="stroke-width:0.857154" /><rect
   id="connector1pin-6"
   x="18.625111"
   y="23.810888"
   width="0.46799999"
   height="5.3390002"
   style="stroke-width:0.841537" /><rect
   x="33.257999"
   y="28.877001"
   width="0.071000002"
   height="0.071000002"
   id="rect194" /><g
   id="g_x5F_g"
   transform="matrix(0.84242826,0,0,0.84367997,31.076508,-0.8476095)">
		<g
   id="g36"
   transform="matrix(1,0,0,-1,0,36.619)">
			<path
   id="path38"
   d="m -5.704,14.518 c 0.123,0 0.236,0.065 0.296,0.173 v 0 c 0.062,0.106 0.059,0.237 -0.004,0.342 v 0 l -3.587,6.011 c -0.061,0.103 -0.172,0.167 -0.292,0.167 v 0 c -0.119,0 -0.231,-0.064 -0.292,-0.166 v 0 l -3.595,-6.01 c -0.063,-0.106 -0.064,-0.237 -0.004,-0.343 v 0 c 0.061,-0.107 0.173,-0.173 0.297,-0.173 v 0 h 7.181 M -9.29,20.205 -6.303,15.2 h -5.981 z" />
			<path
   id="path40"
   d="m -12.964,21.21 c -0.188,0 -0.341,-0.151 -0.341,-0.34 v 0 c 0,-0.189 0.152,-0.341 0.341,-0.341 v 0 h 7.173 c 0.189,0 0.341,0.152 0.341,0.341 v 0 c 0,0.188 -0.152,0.34 -0.341,0.34 v 0 z" />
			<path
   id="path42"
   d="M -9.63,14.813 V 7.452 c 0,-0.071 0.152,-0.128 0.341,-0.128 v 0 c 0.188,0 0.341,0.057 0.341,0.128 v 0 7.361 c 0,0.071 -0.152,0.128 -0.341,0.128 v 0 C -9.478,14.942 -9.63,14.884 -9.63,14.813 Z" />
			<path
   id="path44"
   d="m -9.63,28.907 v -8.071 c 0,-0.188 0.153,-0.341 0.341,-0.341 v 0 c 0.188,0 0.341,0.152 0.341,0.341 v 0 8.071 c 0,0.188 -0.152,0.34 -0.341,0.34 v 0 c -0.189,0.001 -0.341,-0.152 -0.341,-0.34 z" />
			<polygon
   id="polygon46"
   points="-3.585,22.575 -3.086,22.176 -2.586,21.778 -1.91,23.649 " />
			<path
   id="path48"
   d="m -4.17,22.604 0.872,-0.694 0.5,-0.399 0.372,-0.296 1.179,3.264 z" />
			<path
   id="path50"
   d="m -2.371,23.618 -3.205,-4.016 c -0.117,-0.148 -0.092,-0.362 0.055,-0.479 v 0 c 0.148,-0.117 0.362,-0.093 0.479,0.054 v 0 l 3.204,4.016 c 0.117,0.147 0.093,0.362 -0.054,0.479 v 0 c -0.064,0.05 -0.138,0.074 -0.212,0.074 v 0 c -0.101,0 -0.2,-0.044 -0.267,-0.128 z" />
			<polygon
   id="polygon52"
   points="-5.817,24.274 -5.317,23.876 -4.818,23.478 -4.143,25.349 " />
			<path
   id="path54"
   d="m -6.401,24.304 0.872,-0.695 0.499,-0.398 0.371,-0.296 1.182,3.265 z" />
			<path
   id="path56"
   d="M -4.603,25.318 -7.1,22.188 c -0.118,-0.147 -0.092,-0.361 0.053,-0.479 v 0 c 0.147,-0.118 0.362,-0.093 0.479,0.054 v 0 l 2.496,3.129 c 0.118,0.147 0.093,0.361 -0.053,0.479 v 0 c -0.064,0.049 -0.138,0.075 -0.212,0.075 v 0 c -0.099,0 -0.198,-0.044 -0.266,-0.128 z" />
		</g>
	</g><g
   id="g_x5F_r"
   transform="matrix(-0.84249813,0,0,-0.8370744,17.985282,30.038914)">
		<g
   id="g59"
   transform="matrix(1,0,0,-1,0,36.619)">
			<path
   id="path61"
   d="m 8.051,14.519 c 0.123,0 0.236,0.065 0.296,0.173 v 0 c 0.061,0.106 0.06,0.237 -0.004,0.342 v 0 l -3.586,6.011 c -0.061,0.103 -0.172,0.167 -0.292,0.167 v 0 c -0.12,0 -0.232,-0.064 -0.292,-0.166 v 0 L 0.578,15.035 C 0.515,14.929 0.514,14.798 0.574,14.692 v 0 c 0.061,-0.107 0.173,-0.173 0.297,-0.173 v 0 h 7.18 M 4.464,20.206 7.451,15.2 H 1.47 Z" />
			<path
   id="path63"
   d="m 0.79,21.21 c -0.189,0 -0.341,-0.151 -0.341,-0.34 v 0 c 0,-0.189 0.152,-0.341 0.341,-0.341 v 0 h 7.173 c 0.188,0 0.341,0.152 0.341,0.341 v 0 c 0,0.188 -0.153,0.34 -0.341,0.34 v 0 z" />
			<path
   id="path65"
   d="M 4.124,14.778 V 7.491 c 0,-0.188 0.153,-0.34 0.341,-0.34 v 0 c 0.188,0 0.34,0.152 0.34,0.34 v 0 7.287 c 0,0.188 -0.152,0.341 -0.34,0.341 v 0 c -0.189,0 -0.341,-0.153 -0.341,-0.341 z" />
			<path
   id="path67"
   d="m 4.124,28.907 v -8.07 c 0,-0.188 0.152,-0.341 0.34,-0.341 v 0 c 0.188,0 0.341,0.152 0.341,0.341 v 0 8.07 c 0,0.188 -0.153,0.34 -0.341,0.34 v 0 c -0.188,0.001 -0.34,-0.152 -0.34,-0.34 z" />
			<polygon
   id="polygon69"
   points="10.669,22.176 11.168,21.778 11.843,23.649 10.169,22.575 " />
			<path
   id="path71"
   d="m 9.585,22.604 0.871,-0.694 0.499,-0.399 0.372,-0.296 1.179,3.264 z" />
			<path
   id="path73"
   d="M 11.382,23.618 8.177,19.602 C 8.059,19.454 8.084,19.24 8.231,19.123 v 0 C 8.378,19.006 8.593,19.03 8.71,19.177 v 0 l 3.205,4.016 c 0.117,0.147 0.093,0.362 -0.054,0.479 v 0 c -0.063,0.05 -0.138,0.074 -0.212,0.074 v 0 c -0.1,0.001 -0.199,-0.043 -0.267,-0.128 z" />
			<polygon
   id="polygon75"
   points="8.437,23.877 8.936,23.479 9.612,25.349 7.938,24.275 " />
			<path
   id="path77"
   d="m 7.354,24.305 0.871,-0.695 0.499,-0.398 0.372,-0.296 1.182,3.265 z" />
			<path
   id="path79"
   d="M 9.151,25.318 6.654,22.188 C 6.536,22.041 6.561,21.827 6.708,21.709 v 0 c 0.147,-0.118 0.362,-0.093 0.479,0.054 v 0 l 2.496,3.129 c 0.118,0.147 0.093,0.361 -0.054,0.479 v 0 C 9.566,25.42 9.491,25.446 9.417,25.446 v 0 c -0.1,10e-4 -0.199,-0.043 -0.266,-0.128 z" />
		</g>
	</g><line
   id="line81"
   fill="none"
   stroke="#000000"
   stroke-width="0.380816"
   stroke-linecap="round"
   stroke-linejoin="round"
   x1="14.389407"
   y1="5.4974852"
   x2="23.359592"
   y2="5.4974852" /><line
   id="line81-3"
   fill="none"
   stroke="#000000"
   stroke-width="0.380816"
   stroke-linecap="round"
   stroke-linejoin="round"
   x1="14.357398"
   y1="23.760004"
   x2="23.327602"
   y2="23.760004" /><text
   id="text83"
   font-family="DroidSans"
   font-size="4.7705px"
   x="10.126744"
   y="10.642474">R</text><text
   id="text85"
   font-family="DroidSans"
   font-size="4.7705px"
   x="23.846378"
   y="21.837391">G</text><rect
   id="connector4"
   x="32.765999"
   y="25.700001"
   fill="none"
   width="0.78399998"
   height="3.461" /><rect
   id="connector4_1_"
   x="32.765999"
   y="25.700001"
   fill="none"
   width="0.78399998"
   height="3.461" /><rect
   id="connector4_2_"
   x="32.765999"
   y="25.700001"
   fill="none"
   width="0.78399998"
   height="3.461" /><rect
   id="connector4_3_"
   x="32.765999"
   y="25.700001"
   fill="none"
   width="0.78399998"
   height="3.461" />
</svg>
